<mxfile modified="2022-05-09T01:13:53.271Z" host="app.diagrams.net" agent="5.0 (Windows NT 10.0; Win64; x64) AppleWebKit/537.36 (KHTML, like Gecko) Chrome/101.0.4951.54 Safari/537.36 Edg/101.0.1210.39" etag="IpcpavljanbBobtJ7z0H" compressed="false" version="18.0.2" type="google">
  <diagram id="iAtsiY8OQs1FOzkgpakC" name="Page-330">
    <mxGraphModel grid="1" page="1" gridSize="10" guides="1" tooltips="1" connect="1" arrows="1" fold="1" pageScale="1" pageWidth="827" pageHeight="1169" math="0" shadow="0">
      <root>
        <mxCell id="JcjauKMJFTbdaVD0WJh0-0" />
        <mxCell id="JcjauKMJFTbdaVD0WJh0-1" parent="JcjauKMJFTbdaVD0WJh0-0" />
        <mxCell id="JcjauKMJFTbdaVD0WJh0-2" value="Welcome&lt;br&gt;&amp;amp; Expected behaviour" style="rounded=0;whiteSpace=wrap;html=1;strokeColor=#6c8ebf;strokeWidth=3;align=center;fillColor=none;" parent="JcjauKMJFTbdaVD0WJh0-1" vertex="1">
          <mxGeometry x="120" y="200" width="80" height="40" as="geometry" />
        </mxCell>
        <mxCell id="JcjauKMJFTbdaVD0WJh0-3" value="About User Preferences" style="rounded=0;whiteSpace=wrap;html=1;strokeColor=#6c8ebf;strokeWidth=3;align=center;fillColor=none;" parent="JcjauKMJFTbdaVD0WJh0-1" vertex="1">
          <mxGeometry x="120" y="250" width="80" height="40" as="geometry" />
        </mxCell>
        <mxCell id="JcjauKMJFTbdaVD0WJh0-4" value="About Search &amp;amp; Finding things&amp;nbsp;" style="rounded=0;whiteSpace=wrap;html=1;strokeColor=#6c8ebf;strokeWidth=3;align=center;fillColor=none;" parent="JcjauKMJFTbdaVD0WJh0-1" vertex="1">
          <mxGeometry x="120" y="300" width="80" height="40" as="geometry" />
        </mxCell>
        <mxCell id="JcjauKMJFTbdaVD0WJh0-5" value="&lt;p style=&quot;line-height: 90%&quot;&gt;About Tracking, Privacy &amp;amp; Security&lt;/p&gt;" style="rounded=0;whiteSpace=wrap;html=1;strokeColor=#6c8ebf;strokeWidth=3;align=center;fillColor=none;" parent="JcjauKMJFTbdaVD0WJh0-1" vertex="1">
          <mxGeometry x="120" y="350" width="80" height="40" as="geometry" />
        </mxCell>
        <mxCell id="JcjauKMJFTbdaVD0WJh0-6" value="About Roles, Obligations, Permissions" style="rounded=0;whiteSpace=wrap;html=1;strokeColor=#6c8ebf;strokeWidth=3;align=center;fillColor=none;" parent="JcjauKMJFTbdaVD0WJh0-1" vertex="1">
          <mxGeometry x="120" y="400" width="80" height="40" as="geometry" />
        </mxCell>
        <mxCell id="JcjauKMJFTbdaVD0WJh0-7" value="Expiring Role Invitations" style="rounded=0;whiteSpace=wrap;html=1;strokeColor=#6c8ebf;strokeWidth=3;align=center;fillColor=none;" parent="JcjauKMJFTbdaVD0WJh0-1" vertex="1">
          <mxGeometry x="480" y="200" width="80" height="40" as="geometry" />
        </mxCell>
        <mxCell id="JcjauKMJFTbdaVD0WJh0-8" value="Expiring&amp;nbsp;&lt;br&gt;User" style="rounded=0;whiteSpace=wrap;html=1;strokeColor=#6c8ebf;strokeWidth=3;align=center;fillColor=none;" parent="JcjauKMJFTbdaVD0WJh0-1" vertex="1">
          <mxGeometry x="300" y="200" width="80" height="40" as="geometry" />
        </mxCell>
        <mxCell id="JcjauKMJFTbdaVD0WJh0-9" value="Expired Role Invitations" style="rounded=0;whiteSpace=wrap;html=1;strokeColor=#6c8ebf;strokeWidth=3;align=center;fillColor=none;" parent="JcjauKMJFTbdaVD0WJh0-1" vertex="1">
          <mxGeometry x="480" y="250" width="80" height="40" as="geometry" />
        </mxCell>
        <mxCell id="JcjauKMJFTbdaVD0WJh0-10" value="Expired&amp;nbsp;&lt;br&gt;User" style="rounded=0;whiteSpace=wrap;html=1;strokeColor=#6c8ebf;strokeWidth=3;align=center;fillColor=none;" parent="JcjauKMJFTbdaVD0WJh0-1" vertex="1">
          <mxGeometry x="300" y="250" width="80" height="40" as="geometry" />
        </mxCell>
        <mxCell id="JcjauKMJFTbdaVD0WJh0-11" value="Long time no see, come back!" style="rounded=0;whiteSpace=wrap;html=1;strokeColor=#6c8ebf;strokeWidth=3;align=center;fillColor=none;" parent="JcjauKMJFTbdaVD0WJh0-1" vertex="1">
          <mxGeometry x="210" y="200" width="80" height="40" as="geometry" />
        </mxCell>
        <mxCell id="JcjauKMJFTbdaVD0WJh0-12" value="Comment left on subscribed resource" style="rounded=0;whiteSpace=wrap;html=1;strokeColor=#6c8ebf;strokeWidth=3;align=center;fillColor=none;" parent="JcjauKMJFTbdaVD0WJh0-1" vertex="1">
          <mxGeometry x="570" y="300" width="80" height="40" as="geometry" />
        </mxCell>
        <mxCell id="JcjauKMJFTbdaVD0WJh0-13" value="&lt;p style=&quot;line-height: 80%&quot;&gt;Status change on a susbcribed Resource&lt;/p&gt;" style="rounded=0;whiteSpace=wrap;html=1;strokeColor=#6c8ebf;strokeWidth=3;align=center;fillColor=none;" parent="JcjauKMJFTbdaVD0WJh0-1" vertex="1">
          <mxGeometry x="570" y="250" width="80" height="40" as="geometry" />
        </mxCell>
        <mxCell id="JcjauKMJFTbdaVD0WJh0-14" value="&lt;p style=&quot;line-height: 80%&quot;&gt;User added/&lt;br&gt;removed from a subscribed Resource&lt;/p&gt;" style="rounded=0;whiteSpace=wrap;html=1;strokeColor=#6c8ebf;strokeWidth=3;align=center;fillColor=none;" parent="JcjauKMJFTbdaVD0WJh0-1" vertex="1">
          <mxGeometry x="570" y="200" width="80" height="40" as="geometry" />
        </mxCell>
        <mxCell id="JcjauKMJFTbdaVD0WJh0-15" value="User added/ removed from a Group" style="rounded=0;whiteSpace=wrap;html=1;strokeColor=#6c8ebf;strokeWidth=3;align=center;fillColor=none;" parent="JcjauKMJFTbdaVD0WJh0-1" vertex="1">
          <mxGeometry x="390" y="200" width="80" height="40" as="geometry" />
        </mxCell>
        <mxCell id="JcjauKMJFTbdaVD0WJh0-16" value="Onboarding" style="rounded=0;whiteSpace=wrap;html=1;strokeColor=#666666;strokeWidth=2;fillColor=#f5f5f5;align=center;fontColor=#333333;" parent="JcjauKMJFTbdaVD0WJh0-1" vertex="1">
          <mxGeometry x="120" y="160" width="80" height="20" as="geometry" />
        </mxCell>
        <mxCell id="JcjauKMJFTbdaVD0WJh0-17" value="Groups" style="rounded=0;whiteSpace=wrap;html=1;strokeColor=#666666;strokeWidth=2;fillColor=#f5f5f5;align=center;fontColor=#333333;" parent="JcjauKMJFTbdaVD0WJh0-1" vertex="1">
          <mxGeometry x="390" y="160" width="80" height="20" as="geometry" />
        </mxCell>
        <mxCell id="JcjauKMJFTbdaVD0WJh0-18" value="Resources" style="rounded=0;whiteSpace=wrap;html=1;strokeColor=#666666;strokeWidth=2;fillColor=#f5f5f5;align=center;fontColor=#333333;" parent="JcjauKMJFTbdaVD0WJh0-1" vertex="1">
          <mxGeometry x="570" y="160" width="80" height="20" as="geometry" />
        </mxCell>
        <mxCell id="JcjauKMJFTbdaVD0WJh0-19" value="Group Roles" style="rounded=0;whiteSpace=wrap;html=1;strokeColor=#666666;strokeWidth=2;fillColor=#f5f5f5;align=center;fontColor=#333333;" parent="JcjauKMJFTbdaVD0WJh0-1" vertex="1">
          <mxGeometry x="480" y="160" width="80" height="20" as="geometry" />
        </mxCell>
        <mxCell id="JcjauKMJFTbdaVD0WJh0-20" value="Engagement" style="rounded=0;whiteSpace=wrap;html=1;strokeColor=#666666;strokeWidth=2;fillColor=#f5f5f5;align=center;fontColor=#333333;" parent="JcjauKMJFTbdaVD0WJh0-1" vertex="1">
          <mxGeometry x="210" y="160" width="80" height="20" as="geometry" />
        </mxCell>
        <mxCell id="JcjauKMJFTbdaVD0WJh0-21" value="Offboarding" style="rounded=0;whiteSpace=wrap;html=1;strokeColor=#666666;strokeWidth=2;fillColor=#f5f5f5;align=center;fontColor=#333333;" parent="JcjauKMJFTbdaVD0WJh0-1" vertex="1">
          <mxGeometry x="300" y="160" width="80" height="20" as="geometry" />
        </mxCell>
        <mxCell id="49PO6bpUlwlfewYZ89yB-0" value="&lt;font style=&quot;font-size: 12px&quot;&gt;Diagram: Base System Logical Module - Triggered Notifications&lt;/font&gt;" style="text;strokeColor=none;fillColor=none;html=1;fontSize=12;fontStyle=2;verticalAlign=middle;align=left;shadow=0;glass=0;comic=0;opacity=30;fontColor=#808080;" parent="JcjauKMJFTbdaVD0WJh0-1" vertex="1">
          <mxGeometry x="120" y="540" width="480" height="20" as="geometry" />
        </mxCell>
        <mxCell id="49PO6bpUlwlfewYZ89yB-2" value="Expiring Role" style="rounded=0;whiteSpace=wrap;html=1;strokeColor=#6c8ebf;strokeWidth=3;align=center;fillColor=none;" parent="JcjauKMJFTbdaVD0WJh0-1" vertex="1">
          <mxGeometry x="480" y="300" width="80" height="40" as="geometry" />
        </mxCell>
        <mxCell id="49PO6bpUlwlfewYZ89yB-3" value="Expired Role" style="rounded=0;whiteSpace=wrap;html=1;strokeColor=#6c8ebf;strokeWidth=3;align=center;fillColor=none;" parent="JcjauKMJFTbdaVD0WJh0-1" vertex="1">
          <mxGeometry x="480" y="350" width="80" height="40" as="geometry" />
        </mxCell>
        <mxCell id="49PO6bpUlwlfewYZ89yB-4" value="Users" style="rounded=0;whiteSpace=wrap;html=1;strokeColor=#666666;strokeWidth=2;fillColor=#f5f5f5;align=center;fontColor=#333333;" parent="JcjauKMJFTbdaVD0WJh0-1" vertex="1">
          <mxGeometry x="120" y="130" width="260" height="20" as="geometry" />
        </mxCell>
        <mxCell id="49PO6bpUlwlfewYZ89yB-5" value="Groups" style="rounded=0;whiteSpace=wrap;html=1;strokeColor=#666666;strokeWidth=2;fillColor=#f5f5f5;align=center;fontColor=#333333;" parent="JcjauKMJFTbdaVD0WJh0-1" vertex="1">
          <mxGeometry x="390" y="130" width="170" height="20" as="geometry" />
        </mxCell>
        <mxCell id="49PO6bpUlwlfewYZ89yB-6" value="Onboarding messages can be combined as desired." style="shape=note;whiteSpace=wrap;html=1;size=14;verticalAlign=top;align=left;spacingTop=-6;rounded=0;strokeColor=#000000;strokeWidth=1;fillColor=none;" parent="JcjauKMJFTbdaVD0WJh0-1" vertex="1">
          <mxGeometry x="240" y="360" width="100" height="70" as="geometry" />
        </mxCell>
        <mxCell id="49PO6bpUlwlfewYZ89yB-7" value="Data" style="rounded=0;whiteSpace=wrap;html=1;strokeColor=#666666;strokeWidth=2;fillColor=#f5f5f5;align=center;fontColor=#333333;" parent="JcjauKMJFTbdaVD0WJh0-1" vertex="1">
          <mxGeometry x="570" y="130" width="80" height="20" as="geometry" />
        </mxCell>
      </root>
    </mxGraphModel>
  </diagram>
</mxfile>
